# xmcd CD database file
#
# Track frame offsets:
#	150
#	22562
#	45615
#	61202
#	84465
#	108602
#	123527
#	142977
#	152722
#	173152
#
# Disc length: 2545 seconds
#
# Revision: 2
# Processed by: cddbd v1.4b41PL1 Copyright (c) Steve Scherf et al.
# Submitted via: Feurio! 1.50.2ß - http://www.feurio.com
#
DISCID=7709ef0a
DTITLE=Dick Meyers And The Country Cousins - Square Dance
DYEAR=1900
DGENRE=
TTITLE0=Solomon Levi
TTITLE1=Red River Valley
TTITLE2=Life On The Ocean Waves
TTITLE3=Marching Thru Georgia
TTITLE4=Make An Arch
TTITLE5=Solomon Levi
TTITLE6=red River Valley
TTITLE7=Life On The Ocean Waves
TTITLE8=Marching Through Georgia
TTITLE9=Make An Arch
EXTD=
EXTT0=
EXTT1=
EXTT2=
EXTT3=
EXTT4=
EXTT5=
EXTT6=
EXTT7=
EXTT8=
EXTT9=
PLAYORDER=
